<?xml version="1.0" encoding="UTF-8" standalone="no"?><!DOCTYPE svg PUBLIC "-//W3C//DTD SVG 1.1//EN" "http://www.w3.org/Graphics/SVG/1.1/DTD/svg11.dtd"><svg width="100%" height="100%" viewBox="0 0 942 175" version="1.1" xmlns="http://www.w3.org/2000/svg" xmlns:xlink="http://www.w3.org/1999/xlink" xml:space="preserve" xmlns:serif="http://www.serif.com/" style="fill-rule:evenodd;clip-rule:evenodd;stroke-linejoin:round;stroke-miterlimit:2;"><g><path d="M221.76,132.464l21.939,-0l-37.006,-90.797l-21.807,-0l-37.006,90.797l21.807,-0l5.815,-14.274l40.442,-0l5.816,14.274Zm-39.517,-30.795l13.48,-33.173l13.481,33.173l-26.961,0Z" style="fill:#fff;fill-rule:nonzero;"/><path d="M279.516,134.05c16.784,-0 27.754,-8.591 27.754,-22.072c0,-14.934 -13.084,-18.899 -24.847,-21.939c-9.251,-2.511 -12.027,-3.569 -12.027,-7.269c0,-2.379 3.304,-4.097 8.062,-4.097c5.816,-0 12.952,2.247 19.164,6.079l7.798,-13.745c-7.534,-5.022 -17.182,-8.458 -26.962,-8.458c-16.124,-0 -26.829,9.251 -26.697,22.203c0.132,13.481 10.97,17.314 24.979,20.75c7.005,1.85 12.027,3.172 12.027,7.401c0,3.04 -3.701,5.155 -8.855,5.155c-9.119,-0 -16.785,-3.304 -22.864,-7.666l-8.327,13.349c8.194,6.608 19.825,10.309 30.795,10.309Z" style="fill:#fff;fill-rule:nonzero;"/><path d="M345.862,134.05c16.785,-0 27.755,-8.591 27.755,-22.072c-0,-14.934 -13.085,-18.899 -24.847,-21.939c-9.252,-2.511 -12.027,-3.569 -12.027,-7.269c-0,-2.379 3.304,-4.097 8.062,-4.097c5.815,-0 12.952,2.247 19.164,6.079l7.797,-13.745c-7.533,-5.022 -17.181,-8.458 -26.961,-8.458c-16.124,-0 -26.83,9.251 -26.697,22.203c0.132,13.481 10.969,17.314 24.979,20.75c7.004,1.85 12.027,3.172 12.027,7.401c-0,3.04 -3.701,5.155 -8.855,5.155c-9.12,-0 -16.785,-3.304 -22.865,-7.666l-8.326,13.349c8.194,6.608 19.824,10.309 30.794,10.309Z" style="fill:#fff;fill-rule:nonzero;"/><path d="M418.817,117c-8.062,0 -14.01,-5.022 -16.256,-12.423l49.297,-0c0,-25.772 -12.556,-42.028 -33.966,-42.028c-19.957,-0 -35.156,14.934 -35.156,35.552c0,21.014 15.86,35.949 36.213,35.949c10.045,-0 21.807,-4.23 27.887,-10.574l-12.292,-12.555c-3.7,3.568 -10.308,6.079 -15.727,6.079Zm-0.132,-37.402c7.797,-0 12.82,4.361 14.67,11.102l-30.53,-0c2.511,-6.873 8.591,-11.102 15.86,-11.102Z" style="fill:#fff;fill-rule:nonzero;"/><path d="M490.582,134.05c16.785,-0 27.755,-8.591 27.755,-22.072c-0,-14.934 -13.085,-18.899 -24.847,-21.939c-9.252,-2.511 -12.027,-3.569 -12.027,-7.269c-0,-2.379 3.304,-4.097 8.062,-4.097c5.815,-0 12.952,2.247 19.164,6.079l7.797,-13.745c-7.533,-5.022 -17.181,-8.458 -26.961,-8.458c-16.124,-0 -26.829,9.251 -26.697,22.203c0.132,13.481 10.969,17.314 24.979,20.75c7.004,1.85 12.027,3.172 12.027,7.401c-0,3.04 -3.701,5.155 -8.855,5.155c-9.12,-0 -16.785,-3.304 -22.865,-7.666l-8.326,13.349c8.194,6.608 19.825,10.309 30.794,10.309Z" style="fill:#fff;fill-rule:nonzero;"/><path d="M556.929,134.05c16.785,-0 27.754,-8.591 27.754,-22.072c0,-14.934 -13.084,-18.899 -24.847,-21.939c-9.251,-2.511 -12.027,-3.569 -12.027,-7.269c0,-2.379 3.305,-4.097 8.062,-4.097c5.816,-0 12.953,2.247 19.164,6.079l7.798,-13.745c-7.533,-5.022 -17.181,-8.458 -26.962,-8.458c-16.124,-0 -26.829,9.251 -26.697,22.203c0.132,13.481 10.97,17.314 24.979,20.75c7.005,1.85 12.027,3.172 12.027,7.401c0,3.04 -3.7,5.155 -8.855,5.155c-9.119,-0 -16.785,-3.304 -22.864,-7.666l-8.327,13.349c8.195,6.608 19.825,10.309 30.795,10.309Z" style="fill:#fff;fill-rule:nonzero;"/><path d="M678.917,62.549c-10.177,-0 -18.636,4.89 -22.204,12.423c-4.229,-7.665 -12.291,-12.423 -21.675,-12.423c-8.459,-0 -15.199,4.097 -18.503,10.573l-0,-8.987l-19.296,-0l-0,68.329l19.296,-0l-0,-41.236c-0,-7.269 5.419,-12.423 13.216,-12.423c7.005,-0 12.027,5.551 12.027,13.481l0,40.31l18.503,-0l0,-41.368c0,-7.269 5.551,-12.423 13.217,-12.423c7.137,-0 12.159,5.551 12.159,13.481l-0,40.31l18.503,-0l0,-43.614c0,-15.464 -10.97,-26.433 -25.243,-26.433Z" style="fill:#fff;fill-rule:nonzero;"/><path d="M752.664,117c-8.062,0 -14.009,-5.022 -16.256,-12.423l49.297,-0c0,-25.772 -12.555,-42.028 -33.966,-42.028c-19.957,-0 -35.156,14.934 -35.156,35.552c0,21.014 15.86,35.949 36.214,35.949c10.044,-0 21.807,-4.23 27.886,-10.574l-12.291,-12.555c-3.701,3.568 -10.309,6.079 -15.728,6.079Zm-0.132,-37.402c7.798,-0 12.82,4.361 14.67,11.102l-30.53,-0c2.512,-6.873 8.591,-11.102 15.86,-11.102Z" style="fill:#fff;fill-rule:nonzero;"/><path d="M838.307,62.549c-8.855,-0 -16.521,3.965 -20.618,10.176l0,-8.59l-19.296,-0l0,68.329l19.296,-0l0,-40.839l0.132,0.396c0,-7.401 6.212,-13.216 14.274,-13.216c7.666,-0 12.952,5.815 12.952,14.274l0,39.385l18.636,-0l-0,-43.482c-0,-15.464 -10.574,-26.433 -25.376,-26.433Z" style="fill:#fff;fill-rule:nonzero;"/><path d="M915.887,115.547c-1.321,1.321 -3.964,2.246 -6.608,2.246c-3.568,0 -6.476,-3.172 -6.476,-7.665l0,-30.398l14.803,0l-0,-15.595l-14.803,-0l0,-18.768l-18.503,0l0,18.768l-9.384,-0l0,15.595l9.384,0l0,33.438c0,12.291 8.459,20.882 20.486,20.882c5.551,-0 11.762,-2.379 15.727,-5.948l-4.626,-12.555Z" style="fill:#fff;fill-rule:nonzero;"/><g><path d="M86.582,59.245l-0,-17.578l-69.915,-0l-0,90.797l69.915,-0l-0,-17.578l-50.355,-0l0,-19.957l45.597,-0l-0,-17.578l-45.597,0l0,-18.106l50.355,-0Z" style="fill:#fff;fill-rule:nonzero;"/><rect x="98.344" y="87.924" width="36.213" height="16.388" style="fill:#fff;fill-rule:nonzero;"/></g></g></svg>